<svg xmlns="http://www.w3.org/2000/svg" xmlns:xlink="http://www.w3.org/1999/xlink" width="32" height="32" viewBox="0 0 32 32">
  <defs>
    <clipPath id="clip-Logo-light">
      <rect width="32" height="32"/>
    </clipPath>
  </defs>
  <g id="Logo-light" clip-path="url(#clip-Logo-light)">
    <g id="Group_10" data-name="Group 10" transform="translate(69.536 86)">
      <path id="Path_139" data-name="Path 139" d="M1493.426,614.259h0a.56.56,0,0,1-.139.1.615.615,0,1,1,.247-.83.609.609,0,0,1-.109.725" transform="translate(-1555.074 -681.447)" fill="#fff"/>
      <path id="Path_163" data-name="Path 163" d="M1460.146,407.927h0a.7.7,0,0,1-.136.1.738.738,0,0,1-1.016-.245.739.739,0,0,1,1.26-.771.737.737,0,0,1-.109.911" transform="translate(-1522.062 -477.859)" fill="#fff"/>
      <path id="Path_162" data-name="Path 162" d="M1639.49,470.064h0a.579.579,0,0,1-.19.13.613.613,0,1,1,.322-.808.629.629,0,0,1-.132.678" transform="translate(-1699.043 -539.32)" fill="#fff"/>
      <path id="Path_134" data-name="Path 134" d="M3063.637,556.952a.793.793,0,0,1-1.355-.556.825.825,0,0,1,.8-.8.8.8,0,0,1,.557.23.784.784,0,0,1,.23.568.767.767,0,0,1-.231.558" transform="translate(-3102.516 -624.658)" fill="#fff"/>
      <path id="Path_135" data-name="Path 135" d="M2679.933,609.735a.613.613,0,1,1,.83-.248.532.532,0,0,1-.1.139.613.613,0,0,1-.725.109" transform="translate(-2725.317 -676.885)" fill="#fff"/>
      <path id="Path_136" data-name="Path 136" d="M2871.608,560.217a.756.756,0,0,1-.139-1.059l.005-.006a.758.758,0,0,1,1.193.936.355.355,0,0,1-.058.07.754.754,0,0,1-1,.059" transform="translate(-2914.28 -627.882)" fill="#fff"/>
      <path id="Path_137" data-name="Path 137" d="M2514.408,693.527a.425.425,0,0,1-.3.127.43.43,0,0,1-.3-.127.408.408,0,0,1-.123-.3.427.427,0,0,1,.727-.3.432.432,0,0,1,0,.6" transform="translate(-2561.764 -759.9)" fill="#fff"/>
      <path id="Path_138" data-name="Path 138" d="M1085.352,561.637a.793.793,0,0,0-.556-1.355.825.825,0,0,0-.8.8.8.8,0,0,0,.23.556.781.781,0,0,0,.568.23.772.772,0,0,0,.558-.232" transform="translate(-1152.532 -629.278)" fill="#fff"/>
      <path id="Path_140" data-name="Path 140" d="M1288.028,564.51h0a.351.351,0,0,1-.07.059.758.758,0,0,1-.936-1.193l.006-.006a.76.76,0,0,1,1,1.14" transform="translate(-1352.371 -632.168)" fill="#fff"/>
      <path id="Path_141" data-name="Path 141" d="M2533.843,465.422a.618.618,0,1,1,.81-.322.569.569,0,0,1-.13.19.627.627,0,0,1-.68.132" transform="translate(-2581.275 -534.609)" fill="#fff"/>
      <path id="Path_142" data-name="Path 142" d="M3034.2,142.389a.989.989,0,0,1-.719.292,1.01,1.01,0,0,1-1-1,1.038,1.038,0,0,1,1-1,.983.983,0,0,1,.718.292,1.031,1.031,0,0,1,.292.718,1.009,1.009,0,0,1-.291.7" transform="translate(-3073.138 -215.675)" fill="#fff"/>
      <path id="Path_143" data-name="Path 143" d="M2237.034,425.923a.511.511,0,0,1,.233-.994.517.517,0,0,1,.378.615.5.5,0,0,1-.133.24.522.522,0,0,1-.478.139" transform="translate(-2288.689 -495.849)" fill="#fff"/>
      <path id="Path_144" data-name="Path 144" d="M2383.915,329.937a.6.6,0,0,1-.36-.768.6.6,0,0,1,1.132.409l0,0a.647.647,0,0,1-.14.216.614.614,0,0,1-.635.139" transform="translate(-2433.463 -401.083)" fill="#fff"/>
      <path id="Path_145" data-name="Path 145" d="M2533.518,253.662a.774.774,0,0,1-.347-1.043.781.781,0,1,1,1.4.7.971.971,0,0,1-.143.2.78.78,0,0,1-.906.142" transform="translate(-2580.893 -325.591)" fill="#fff"/>
      <path id="Path_146" data-name="Path 146" d="M2693.056,199.891a.914.914,0,1,1,1.259-.252.61.61,0,0,1-.109.136.9.9,0,0,1-1.15.116" transform="translate(-2738.168 -272.391)" fill="#fff"/>
      <path id="Path_147" data-name="Path 147" d="M2865.4,167.8a.917.917,0,0,1,1.189-1.4.926.926,0,0,1,.1,1.292c-.019.02-.033.033-.052.051a.913.913,0,0,1-1.24.053" transform="translate(-2908.133 -240.822)" fill="#fff"/>
      <path id="Path_148" data-name="Path 148" d="M3051.407,358.414a.885.885,0,0,1-.631.256.886.886,0,0,1-.883-.881.916.916,0,0,1,.888-.888.9.9,0,0,1,.625.263.906.906,0,0,1,0,1.25" transform="translate(-3090.306 -428.805)" fill="#fff"/>
      <path id="Path_149" data-name="Path 149" d="M2232.088,650.391a.468.468,0,1,1,.526-.4.46.46,0,0,1-.526.4" transform="translate(-2283.799 -717.178)" fill="#fff"/>
      <path id="Path_150" data-name="Path 150" d="M2375.468,545.829a.561.561,0,1,1,.7-.386.6.6,0,0,1-.147.242.551.551,0,0,1-.549.145" transform="translate(-2425.123 -613.945)" fill="#fff"/>
      <path id="Path_151" data-name="Path 151" d="M2696.115,403.432a.739.739,0,0,1,.771-1.26.736.736,0,0,1,.245,1.016.688.688,0,0,1-.1.136.737.737,0,0,1-.912.109" transform="translate(-2741.243 -473.325)" fill="#fff"/>
      <path id="Path_152" data-name="Path 152" d="M2868.906,369.6a.809.809,0,0,1-.113-1.126.8.8,0,0,1,1.12-.107.785.785,0,0,1,.113,1.115l.006.006-.056.056a.8.8,0,0,1-1.07.057" transform="translate(-2911.621 -439.932)" fill="#fff"/>
      <path id="Path_153" data-name="Path 153" d="M1085.789,142.3a.988.988,0,0,0,.292-.718,1.009,1.009,0,0,0-1-1,1.038,1.038,0,0,0-1,1,.983.983,0,0,0,.292.718,1.03,1.03,0,0,0,.718.292,1.012,1.012,0,0,0,.7-.29" transform="translate(-1152.612 -215.578)" fill="#fff"/>
      <path id="Path_154" data-name="Path 154" d="M1950.784,430.512h0a.511.511,0,0,1-.24.133.516.516,0,0,1-.615-.378.511.511,0,0,1,.994-.233.517.517,0,0,1-.139.478" transform="translate(-2006.065 -500.508)" fill="#fff"/>
      <path id="Path_155" data-name="Path 155" d="M1791.149,334.161h0a.646.646,0,0,1-.216.14l0,0a.6.6,0,0,1-.766-.356.607.607,0,0,1,.356-.774.6.6,0,0,1,.77.361.608.608,0,0,1-.14.634" transform="translate(-1848.561 -405.375)" fill="#fff"/>
      <path id="Path_156" data-name="Path 156" d="M1616.62,257.824h0a.933.933,0,0,1-.2.143.782.782,0,1,1-.7-1.4.783.783,0,0,1,.9,1.253" transform="translate(-1676.224 -329.83)" fill="#fff"/>
      <path id="Path_157" data-name="Path 157" d="M1439,204.53h0a.571.571,0,0,1-.136.11.913.913,0,1,1,.252-1.259.9.9,0,0,1-.116,1.149" transform="translate(-1500.921 -277.079)" fill="#fff"/>
      <path id="Path_158" data-name="Path 158" d="M1266.446,174.838h0l-.051.052a.925.925,0,0,1-1.292-.1.917.917,0,1,1,1.343.053" transform="translate(-1330.837 -247.81)" fill="#fff"/>
      <path id="Path_159" data-name="Path 159" d="M1085.513,362.909a.884.884,0,0,0,.256-.632.887.887,0,0,0-.881-.883.916.916,0,0,0-.888.888.9.9,0,0,0,.263.625.907.907,0,0,0,1.25,0" transform="translate(-1152.536 -433.235)" fill="#fff"/>
      <path id="Path_160" data-name="Path 160" d="M1961.162,654.865h0a.465.465,0,0,1-.269.13.471.471,0,0,1-.528-.4.469.469,0,1,1,.8.272" transform="translate(-2016.359 -721.714)" fill="#fff"/>
      <path id="Path_161" data-name="Path 161" d="M1805.184,550.083h0a.607.607,0,0,1-.242.147.574.574,0,1,1,.242-.147" transform="translate(-1862.46 -618.277)" fill="#fff"/>
      <path id="Path_164" data-name="Path 164" d="M1274.446,374.276h0l-.056.056-.006-.006a.784.784,0,0,1-1.115-.113.8.8,0,0,1,.107-1.12.8.8,0,0,1,1.069,1.183" transform="translate(-1338.919 -444.592)" fill="#fff"/>
      <path id="Path_165" data-name="Path 165" d="M1685.127,698.109a.424.424,0,0,0,.128-.3.43.43,0,0,0-.128-.3.406.406,0,0,0-.3-.123.427.427,0,0,0-.3.727.414.414,0,0,0,.3.123.407.407,0,0,0,.3-.123" transform="translate(-1744.347 -764.416)" fill="#fff"/>
      <path id="Path_166" data-name="Path 166" d="M2095.5,535.6a.463.463,0,0,1-.335.133.461.461,0,0,1-.472-.471.49.49,0,0,1,.472-.472.461.461,0,0,1,.335.14.466.466,0,0,1,.138.332.472.472,0,0,1-.138.338" transform="translate(-2148.769 -604.153)" fill="#fff"/>
      <path id="Path_167" data-name="Path 167" d="M2098.425,778.137a.432.432,0,0,1-.734-.307.445.445,0,0,1,.429-.429.431.431,0,0,1,.308.124.44.44,0,0,1,.125.307.423.423,0,0,1-.127.3" transform="translate(-2151.726 -843.289)" fill="#fff"/>
    </g>
  </g>
</svg>
